<svg id="docker" xmlns="http://www.w3.org/2000/svg" viewBox="0 0 43.181 24.518">
  <defs>
    <style>
      .cls-1 {
        fill: #364548;
      }

      .cls-1, .cls-2, .cls-3, .cls-4, .cls-5, .cls-6, .cls-7, .cls-8, .cls-9 {
        fill-rule: evenodd;
      }

      .cls-2 {
        fill: #22a0c8;
      }

      .cls-3 {
        fill: #37b1d9;
      }

      .cls-4 {
        fill: #1b81a5;
      }

      .cls-5 {
        fill: #1d91b4;
      }

      .cls-6 {
        fill: #23a3c2;
      }

      .cls-7 {
        fill: #34bbde;
      }

      .cls-8 {
        fill: #d3ecec;
      }

      .cls-9 {
        fill: #bdd9d7;
      }
    </style>
  </defs>
  <path id="Path_44" data-name="Path 44" class="cls-1" d="M50.931,7.743H54.8V11.7H56.76a8.489,8.489,0,0,0,2.69-.451,6.889,6.889,0,0,0,1.308-.591,4.855,4.855,0,0,1-.908-2.5A5.286,5.286,0,0,1,60.8,4.43l.407-.471.485.39A6.165,6.165,0,0,1,64.12,8.263a5.917,5.917,0,0,1,4.492.418l.532.307-.28.546c-1.1,2.139-3.387,2.8-5.627,2.684-3.352,8.348-10.649,12.3-19.5,12.3-4.571,0-8.765-1.709-11.153-5.764l-.039-.066L32.2,17.98a11.227,11.227,0,0,1-.893-5.695l.055-.585h3.31V7.743h3.871V3.871h7.743V0h4.646V7.743" transform="translate(-25.962)"/>
  <path id="Path_45" data-name="Path 45" class="cls-2" d="M66.639,33.015c.26-2.017-1.25-3.6-2.186-4.354-1.079,1.247-1.247,4.517.446,5.893a8.142,8.142,0,0,1-4.973,1.6H35.115a10.455,10.455,0,0,0,1.028,5.764l.282.516a9.571,9.571,0,0,0,.585.878h0q1.53.1,2.821.069h0a13.836,13.836,0,0,0,4.116-.6.3.3,0,1,1,.2.563c-.139.048-.284.093-.434.136h0a12.95,12.95,0,0,1-2.845.464c.068,0-.07.01-.071.01l-.126.01c-.448.025-.932.03-1.427.03-.541,0-1.074-.01-1.67-.04l-.015.01c2.067,2.323,5.3,3.717,9.351,3.717,8.575,0,15.848-3.8,19.069-12.335,2.285.234,4.481-.348,5.48-2.3a5.39,5.39,0,0,0-4.815-.033" transform="translate(-29.127 -23.809)"/>
  <path id="Path_46" data-name="Path 46" class="cls-3" d="M74.074,33.015c.26-2.017-1.25-3.6-2.186-4.354-1.079,1.247-1.247,4.517.446,5.893a8.142,8.142,0,0,1-4.973,1.6H44.019a8.054,8.054,0,0,0,3.247,7.227h0a13.836,13.836,0,0,0,4.116-.6.3.3,0,1,1,.2.563c-.139.048-.284.093-.434.136h0a13.616,13.616,0,0,1-2.921.484l-.028-.026c2.918,1.5,7.15,1.492,12-.372A33.727,33.727,0,0,0,74.229,32.942q-.08.036-.155.074" transform="translate(-36.562 -23.809)"/>
  <path id="Path_47" data-name="Path 47" class="cls-4" d="M35.645,88.186a9.921,9.921,0,0,0,.982,3.179l.282.516a9.555,9.555,0,0,0,.585.878q1.53.1,2.821.069a13.835,13.835,0,0,0,4.116-.6.3.3,0,1,1,.2.563c-.139.048-.284.093-.434.136h0a13.615,13.615,0,0,1-2.916.474c-.039,0-.107,0-.147.005-.448.025-.927.041-1.422.041-.541,0-1.094-.01-1.69-.041,2.067,2.323,5.32,3.722,9.371,3.722,7.341,0,13.728-2.786,17.434-8.943H35.645" transform="translate(-29.61 -73.256)"/>
  <path id="Path_48" data-name="Path 48" class="cls-5" d="M45.367,88.186a7.451,7.451,0,0,0,3.024,4.642,13.835,13.835,0,0,0,4.116-.6.3.3,0,1,1,.2.563c-.139.048-.284.093-.434.136h0a13.82,13.82,0,0,1-2.936.474c2.918,1.5,7.137,1.475,11.988-.388a31.686,31.686,0,0,0,8.293-4.828H45.367" transform="translate(-37.686 -73.256)"/>
  <path id="Path_49" data-name="Path 49" class="cls-6" d="M55.261,49.543h3.355V52.9H55.261Zm.279.28H55.8v2.8H55.54Zm.5,0h.275v2.8h-.275Zm.508,0h.275v2.8h-.275Zm.508,0h.275v2.8h-.275Zm.508,0h.275v2.8h-.275Zm.508,0h.265v2.8h-.265Z" transform="translate(-45.905 -41.155)"/>
  <path id="Path_50" data-name="Path 50" class="cls-6" d="M78.126,26.677h3.355v3.355H78.126Zm.28.28h.265v2.8h-.265Zm.5,0h.275v2.8H78.9Zm.508,0h.275v2.8h-.275Zm.508,0H80.2v2.8H79.92Zm.508,0H80.7v2.8h-.275Zm.508,0H81.2v2.8h-.265Z" transform="translate(-64.899 -22.161)"/>
  <path id="Path_51" data-name="Path 51" class="cls-7" d="M78.126,49.543h3.355V52.9H78.126Zm.28.28h.265v2.8h-.265Zm.5,0h.275v2.8H78.9Zm.508,0h.275v2.8h-.275Zm.508,0H80.2v2.8H79.92Zm.508,0H80.7v2.8h-.275Zm.508,0H81.2v2.8h-.265Z" transform="translate(-64.899 -41.155)"/>
  <path id="Path_52" data-name="Path 52" class="cls-6" d="M100.993,49.543h3.355V52.9h-3.355Zm.28.28h.265v2.8h-.265Zm.5,0h.275v2.8h-.275Zm.508,0h.275v2.8h-.275Zm.508,0h.275v2.8h-.275Zm.508,0h.276v2.8h-.276Zm.508,0h.265v2.8H103.8Z" transform="translate(-83.894 -41.155)"/>
  <path id="Path_53" data-name="Path 53" class="cls-7" d="M100.993,26.677h3.355v3.355h-3.355Zm.28.28h.265v2.8h-.265Zm.5,0h.275v2.8h-.275Zm.508,0h.275v2.8h-.275Zm.508,0h.275v2.8h-.275Zm.508,0h.276v2.8h-.276Zm.508,0h.265v2.8H103.8Z" transform="translate(-83.894 -22.161)"/>
  <path id="Path_54" data-name="Path 54" class="cls-7" d="M123.859,49.543h3.355V52.9h-3.355Zm.28.28h.265v2.8h-.265Zm.5,0h.275v2.8h-.275Zm.508,0h.275v2.8h-.275Zm.508,0h.275v2.8h-.275Zm.508,0h.275v2.8h-.275Zm.508,0h.265v2.8h-.265Z" transform="translate(-102.89 -41.155)"/>
  <path id="Path_55" data-name="Path 55" class="cls-6" d="M123.859,26.677h3.355v3.355h-3.355Zm.28.28h.265v2.8h-.265Zm.5,0h.275v2.8h-.275Zm.508,0h.275v2.8h-.275Zm.508,0h.275v2.8h-.275Zm.508,0h.275v2.8h-.275Zm.508,0h.265v2.8h-.265Z" transform="translate(-102.89 -22.161)"/>
  <path id="Path_56" data-name="Path 56" class="cls-7" d="M123.859,3.811h3.355V7.166h-3.355Zm.28.279h.265v2.8h-.265Zm.5,0h.275v2.8h-.275Zm.508,0h.275v2.8h-.275Zm.508,0h.275v2.8h-.275Zm.508,0h.275v2.8h-.275Zm.508,0h.265v2.8h-.265Z" transform="translate(-102.89 -3.165)"/>
  <path id="Path_57" data-name="Path 57" class="cls-6" d="M146.725,49.543h3.355V52.9h-3.355Zm.279.28h.265v2.8H147Zm.5,0h.275v2.8H147.5Zm.508,0h.275v2.8h-.275Zm.508,0h.275v2.8h-.275Zm.509,0h.275v2.8h-.275Zm.508,0h.265v2.8h-.265Z" transform="translate(-121.884 -41.155)"/>
  <path id="Path_58" data-name="Path 58" class="cls-8" d="M92.162,101.492a.926.926,0,1,1-.926.926.926.926,0,0,1,.926-.926" transform="translate(-75.79 -84.309)"/>
  <path id="Path_59" data-name="Path 59" class="cls-1" d="M93.451,103.043a.661.661,0,0,1,.24.045.27.27,0,1,0,.372.364.663.663,0,1,1-.612-.409" transform="translate(-77.079 -85.598)"/>
  <path id="Path_60" data-name="Path 60" class="cls-1" d="M0,81.39H43.058c-.938-.238-2.966-.559-2.632-1.788-1.7,1.973-5.816,1.384-6.853.411-1.155,1.676-7.882,1.039-8.351-.267-1.448,1.7-5.937,1.7-7.385,0-.469,1.305-7.2,1.942-8.351.267-1.038.973-5.148,1.561-6.853-.411C2.966,80.831.938,81.153,0,81.39" transform="translate(0 -66.126)"/>
  <path id="Path_61" data-name="Path 61" class="cls-9" d="M59.569,120.376a8.153,8.153,0,0,1-4.251-4.181,14.191,14.191,0,0,1-3.064.465q-.672.038-1.414.038-.855,0-1.8-.05c2.1,2.1,4.688,3.718,9.477,3.748q.53,0,1.054-.02" transform="translate(-40.736 -96.524)"/>
  <path id="Path_62" data-name="Path 62" class="cls-8" d="M71.947,117.684a8.031,8.031,0,0,1-.851-1.49,14.19,14.19,0,0,1-3.065.465,9.756,9.756,0,0,0,3.916,1.024" transform="translate(-56.513 -96.523)"/>
</svg>
