<svg xmlns="http://www.w3.org/2000/svg" viewBox="0 0 24.915 24.915">
  <defs>
    <style>
      .cls-1 {
        fill: #de4c36;
      }
    </style>
  </defs>
  <g id="git-icon" transform="translate(-0.001)">
    <path id="Path_63" data-name="Path 63" class="cls-1" d="M24.446,11.347,13.568.47A1.6,1.6,0,0,0,11.3.47L9.04,2.729l2.865,2.865a1.905,1.905,0,0,1,2.413,2.429l2.762,2.762a1.907,1.907,0,1,1-1.144,1.077L13.361,9.286v6.777a1.929,1.929,0,0,1,.5.361,1.908,1.908,0,1,1-2.075-.417V9.168a1.886,1.886,0,0,1-.625-.417,1.909,1.909,0,0,1-.411-2.087L7.93,3.839.471,11.3a1.6,1.6,0,0,0,0,2.27L11.349,24.445a1.6,1.6,0,0,0,2.269,0L24.446,13.617a1.606,1.606,0,0,0,0-2.27" transform="translate(0)"/>
  </g>
</svg>
