<svg xmlns="http://www.w3.org/2000/svg" viewBox="0 0 25.484 25.484">
  <defs>
    <style>
      .cls-1 {
        fill: #f7df1e;
      }
    </style>
  </defs>
  <g id="javascript" transform="translate(0 0)">
    <path id="Subtraction_1" data-name="Subtraction 1" class="cls-1" d="M-2530.516-2487.119H-2556V-2512.6h25.484v25.483Zm-8.365-5.573-1.95,1.129a4.55,4.55,0,0,0,4.362,2.446,4.494,4.494,0,0,0,2.837-.859,3.046,3.046,0,0,0,1.131-2.476c0-2.007-1.167-2.9-3.181-3.764l-.6-.257c-1-.433-1.471-.718-1.471-1.454a1.044,1.044,0,0,1,1.147-1.026,1.634,1.634,0,0,1,1.539,1.026l1.865-1.2a3.53,3.53,0,0,0-3.4-1.916,3.2,3.2,0,0,0-3.507,3.166c0,2.1,1.381,2.973,2.874,3.609l.6.257c1.088.476,1.744.763,1.744,1.591,0,.706-.653,1.181-1.625,1.181a2.629,2.629,0,0,1-2.36-1.455Zm-8.469.205h0l-1.95,1.18a3.7,3.7,0,0,0,3.593,2.19,3.633,3.633,0,0,0,2.583-.875,3.6,3.6,0,0,0,.992-2.735v-8.177h-2.394v8.143c0,1.069-.372,1.5-1.283,1.5-.846,0-1.2-.626-1.54-1.231Z" transform="translate(2556 2512.604)"/>
  </g>
</svg>
