<svg id="nodejs-icon" xmlns="http://www.w3.org/2000/svg" viewBox="0 0 22.616 25.484">
  <defs>
    <style>
      .cls-1 {
        fill: #539e43;
      }
    </style>
  </defs>
  <path id="Path_23" data-name="Path 23" class="cls-1" d="M11.308,25.484a2.053,2.053,0,0,1-.983-.258l-3.114-1.85c-.468-.258-.234-.351-.094-.4a5.672,5.672,0,0,0,1.4-.632.215.215,0,0,1,.234.023L11.144,23.8a.3.3,0,0,0,.281,0l9.342-5.408a.269.269,0,0,0,.14-.258V7.34a.269.269,0,0,0-.14-.258L11.425,1.7a.3.3,0,0,0-.281,0L1.8,7.082a.294.294,0,0,0-.14.258V18.133a.294.294,0,0,0,.14.258l2.552,1.475c1.381.7,2.248-.117,2.248-.936V8.276A.285.285,0,0,1,6.883,8H8.077a.285.285,0,0,1,.281.281V18.929A2.6,2.6,0,0,1,5.6,21.855a4.016,4.016,0,0,1-2.154-.585l-2.458-1.4A1.976,1.976,0,0,1,0,18.156V7.363A1.976,1.976,0,0,1,.983,5.654L10.325.246a2.09,2.09,0,0,1,1.967,0l9.342,5.408a1.976,1.976,0,0,1,.983,1.709V18.156a1.976,1.976,0,0,1-.983,1.709l-9.342,5.408a2.4,2.4,0,0,1-.983.211Zm2.88-7.422c-4.1,0-4.94-1.873-4.94-3.465a.285.285,0,0,1,.281-.281h1.217a.241.241,0,0,1,.258.234c.187,1.241.726,1.85,3.207,1.85,1.967,0,2.809-.445,2.809-1.5,0-.609-.234-1.054-3.3-1.358-2.552-.258-4.144-.819-4.144-2.856,0-1.9,1.592-3.02,4.261-3.02,3,0,4.472,1.03,4.659,3.278a.378.378,0,0,1-.07.211.289.289,0,0,1-.187.094H17.021a.274.274,0,0,1-.258-.211c-.281-1.288-1.007-1.709-2.927-1.709-2.154,0-2.411.749-2.411,1.311,0,.679.3.89,3.207,1.264,2.88.375,4.238.913,4.238,2.927-.023,2.06-1.709,3.231-4.682,3.231Z"/>
</svg>
