<svg id="react" xmlns="http://www.w3.org/2000/svg" viewBox="0 0 29.127 25.915">
  <defs>
    <style>
      .cls-1 {
        fill: #00d8ff;
      }
    </style>
  </defs>
  <path id="Path_64" data-name="Path 64" class="cls-1" d="M23.948,8.4q-.453-.156-.938-.3.079-.324.145-.64c.71-3.445.246-6.221-1.339-7.135-1.519-.876-4,.037-6.514,2.222q-.362.315-.725.665-.242-.231-.483-.446C11.464.436,8.828-.549,7.244.368c-1.518.879-1.968,3.488-1.329,6.753q.093.473.215.965c-.373.106-.733.219-1.078.339C1.969,9.5,0,11.185,0,12.933c0,1.805,2.114,3.616,5.326,4.713q.38.13.788.246-.132.531-.229,1.04c-.609,3.208-.133,5.756,1.381,6.629,1.564.9,4.188-.025,6.744-2.259q.3-.265.608-.56.395.38.787.718c2.475,2.13,4.92,2.99,6.433,2.115,1.562-.9,2.07-3.641,1.411-6.971q-.076-.381-.175-.779.276-.082.542-.169c3.339-1.106,5.512-2.895,5.512-4.724,0-1.754-2.033-3.45-5.179-4.533Zm-.724,8.076q-.239.079-.489.153a29.185,29.185,0,0,0-1.475-3.69A29.178,29.178,0,0,0,22.677,9.3q.447.129.866.273c2.7.928,4.339,2.3,4.339,3.357,0,1.126-1.776,2.588-4.659,3.543Zm-1.2,2.37a10.536,10.536,0,0,1,.14,3.844,2.571,2.571,0,0,1-.954,1.808c-.918.531-2.881-.159-5-1.981q-.364-.313-.732-.668a29.232,29.232,0,0,0,2.441-3.1,29.042,29.042,0,0,0,3.945-.608q.089.36.158.7ZM9.93,24.407a2.571,2.571,0,0,1-2.043.077c-.919-.53-1.3-2.575-.78-5.319q.09-.471.213-.967a29.262,29.262,0,0,0,3.925.568,30.29,30.29,0,0,0,2.5,3.089q-.279.269-.555.511A10.538,10.538,0,0,1,9.93,24.407Zm-4.2-7.938a10.538,10.538,0,0,1-3.4-1.8,2.571,2.571,0,0,1-1.087-1.731c0-1.061,1.581-2.413,4.218-3.333.32-.112.655-.217,1-.315a29.825,29.825,0,0,0,1.42,3.679,30.314,30.314,0,0,0-1.437,3.731q-.372-.107-.719-.225ZM7.137,6.882c-.547-2.8-.184-4.908.731-5.437.974-.564,3.129.24,5.4,2.257q.218.193.437.4a29.807,29.807,0,0,0-2.481,3.071,30.411,30.411,0,0,0-3.887.6q-.114-.457-.2-.9ZM19.7,9.984q-.432-.747-.886-1.457c.929.117,1.82.273,2.656.464a26.578,26.578,0,0,1-.932,2.508q-.4-.752-.838-1.516Zm-5.124-4.99a26.6,26.6,0,0,1,1.714,2.069q-.855-.04-1.728-.041t-1.715.04c.566-.746,1.146-1.439,1.729-2.068Zm-5.156,5q-.432.749-.822,1.506c-.362-.859-.672-1.7-.926-2.52.831-.186,1.717-.338,2.641-.453q-.459.716-.893,1.467Zm.919,7.436A26.484,26.484,0,0,1,7.656,17c.257-.831.574-1.694.944-2.571q.391.755.826,1.507h0q.443.765.914,1.5Zm4.271,3.531c-.59-.636-1.178-1.34-1.752-2.1q.837.033,1.7.033.891,0,1.758-.039a26.467,26.467,0,0,1-1.71,2.1Zm5.939-6.578a26.4,26.4,0,0,1,.978,2.562,26.437,26.437,0,0,1-2.717.463q.454-.719.894-1.482t.845-1.543Zm-1.923.922c-.455.789-.923,1.543-1.4,2.254-.864.062-1.757.094-2.667.094s-1.788-.028-2.637-.083c-.494-.721-.971-1.477-1.424-2.258h0c-.451-.779-.866-1.565-1.243-2.347.376-.783.79-1.57,1.239-2.348h0c.45-.78.923-1.532,1.412-2.248.866-.065,1.754-.1,2.652-.1h0c.9,0,1.791.034,2.657.1.482.711.952,1.461,1.4,2.241s.876,1.57,1.256,2.337c-.378.78-.8,1.569-1.252,2.358ZM21.195,1.408c.975.562,1.355,2.831.742,5.806q-.059.285-.131.579a29.806,29.806,0,0,0-3.894-.615A29.229,29.229,0,0,0,15.449,4.1q.336-.323.67-.614c2.15-1.871,4.16-2.61,5.076-2.082Zm-6.631,8.924a2.6,2.6,0,1,1-2.6,2.6,2.6,2.6,0,0,1,2.6-2.6Z" transform="translate(0 0)"/>
</svg>
