<svg xmlns="http://www.w3.org/2000/svg" viewBox="0 0 35.36 26.518">
  <defs>
    <style>
      .cls-1 {
        fill: #cd6799;
      }
    </style>
  </defs>
  <g id="sass" transform="translate(-0.454 -0.454)">
    <path id="Path_22" data-name="Path 22" class="cls-1" d="M30.9,15.7a7.321,7.321,0,0,0-3.2.743,6.751,6.751,0,0,1-.717-1.66,4.457,4.457,0,0,1-.065-1.4,12.39,12.39,0,0,1,.42-1.5c-.006-.065-.078-.368-.788-.375s-1.324.136-1.4.323a7.794,7.794,0,0,0-.3,1.053,24.861,24.861,0,0,1-2.164,4.159,4.487,4.487,0,0,1-.491-1.214,4.457,4.457,0,0,1-.065-1.4,12.391,12.391,0,0,1,.42-1.5c-.006-.065-.078-.368-.788-.375s-1.324.136-1.4.323-.149.626-.3,1.053S18.2,18.2,17.752,19.2c-.233.51-.433.917-.575,1.195h0a.294.294,0,0,1-.026.052c-.123.239-.194.368-.194.368v.006c-.1.174-.2.336-.252.336a2.161,2.161,0,0,1,.013-1.1c.258-1.337.872-3.417.865-3.488,0-.039.116-.4-.4-.588a.641.641,0,0,0-.73.123c-.045,0-.078.11-.078.11s.562-2.338-1.072-2.338c-1.02,0-2.428,1.117-3.126,2.125-.439.239-1.376.749-2.377,1.3-.381.213-.775.426-1.143.626-.026-.026-.052-.058-.078-.084C6.6,15.731,2.949,14.239,3.1,11.4c.058-1.033.413-3.746,7.021-7.04,5.438-2.68,9.766-1.938,10.515-.291,1.072,2.351-2.319,6.717-7.938,7.35a4.232,4.232,0,0,1-3.552-.9c-.3-.323-.342-.342-.452-.278-.181.1-.065.388,0,.555a3.317,3.317,0,0,0,2.028,1.6,10.8,10.8,0,0,0,6.588-.652c3.4-1.318,6.065-4.98,5.283-8.048C21.815.585,16.648-.442,11.759,1.3A24.628,24.628,0,0,0,3.433,6.075C.74,8.594.314,10.783.488,11.7,1.115,14.956,5.6,17.074,7.4,18.643c-.09.052-.174.1-.245.136-.9.446-4.321,2.235-5.173,4.127-.969,2.144.155,3.681.9,3.888a5.524,5.524,0,0,0,5.948-2.409,5.967,5.967,0,0,0,.53-5.5.135.135,0,0,0-.026-.039l.7-.413c.459-.271.911-.523,1.3-.73a8.512,8.512,0,0,0-.459,2.351,4.908,4.908,0,0,0,1.053,3.41,1.163,1.163,0,0,0,.853.278c.762,0,1.1-.633,1.486-1.382.465-.917.885-1.983.885-1.983s-.523,2.881.9,2.881c.517,0,1.04-.672,1.272-1.014v.006s.013-.019.039-.065l.084-.136v-.013c.207-.362.672-1.182,1.363-2.545.891-1.757,1.75-3.953,1.75-3.953a11.224,11.224,0,0,0,.342,1.427,13.44,13.44,0,0,0,.736,1.653c-.207.291-.336.452-.336.452l.006.006c-.168.22-.349.459-.549.691a20.588,20.588,0,0,0-1.66,2.08.565.565,0,0,0,.155.762,1.409,1.409,0,0,0,.865.142,3.974,3.974,0,0,0,1.3-.3,4.357,4.357,0,0,0,1.117-.588,2.5,2.5,0,0,0,1.072-2.2,4.447,4.447,0,0,0-.407-1.557c.065-.09.123-.181.187-.271A29.587,29.587,0,0,0,25.322,14.5a11.225,11.225,0,0,0,.342,1.427,9.561,9.561,0,0,0,.626,1.421A6.139,6.139,0,0,0,24.4,19.78c-.407,1.175-.09,1.705.51,1.828a1.8,1.8,0,0,0,.943-.194,4.3,4.3,0,0,0,1.195-.614,2.685,2.685,0,0,0,1.318-2.183,4.127,4.127,0,0,0-.3-1.292,6.764,6.764,0,0,1,3.43-.394c3.074.362,3.681,2.28,3.565,3.087a2.043,2.043,0,0,1-.975,1.382c-.213.136-.284.181-.265.278.026.142.129.136.31.11a2.4,2.4,0,0,0,1.673-2.138c.1-1.9-1.712-3.972-4.909-3.953Zm-23.716,8c-1.02,1.111-2.441,1.531-3.055,1.175-.659-.381-.4-2.022.853-3.2a16.271,16.271,0,0,1,2.4-1.789c.149-.09.368-.22.633-.381.045-.026.071-.039.071-.039h0l.155-.1a4.411,4.411,0,0,1-1.053,4.327Zm7.428-5.051c-.355.865-1.1,3.081-1.55,2.958-.388-.1-.626-1.783-.078-3.442a7.821,7.821,0,0,1,1.208-2.215c.555-.62,1.169-.827,1.318-.575.187.329-.678,2.732-.9,3.275Zm6.129,2.932c-.149.078-.291.129-.355.09-.045-.026.065-.129.065-.129s.769-.827,1.072-1.2c.174-.22.381-.478.6-.769v.084c0,.988-.956,1.653-1.382,1.925ZM25.47,20.5c-.11-.078-.09-.336.278-1.143A4.3,4.3,0,0,1,26.8,18a1.828,1.828,0,0,1,.1.594A1.954,1.954,0,0,1,25.47,20.5Z" transform="translate(0 0)"/>
  </g>
</svg>
